# xmcd
#
# Track frame offsets:
#	150
#	16269
#	33485
#	46793
#	62326
#	85947
#	104026
#	124693
#	145487
#	164234
#	197053
#	212793
#	227308
#	243001
#	265802
#	279335
#	300276
#	320072
#
# Disc length: 4537 seconds
#
# Revision: 0
# Processed by: cddbd v1.5.2PL0 Copyright (c) Steve Scherf et al.
# Submitted via: EasyCDDAExtractor 12.1.0.1
#
DISCID=f511b712
DTITLE=Hue and Cry - The Collection
DYEAR=2009
DGENRE=Pop
TTITLE0=Labour Of Love
TTITLE1=Looking For Linda
TTITLE2=He Won't Smile
TTITLE3=History City
TTITLE4=Strength To Strength (Remix)
TTITLE5=Alligator Man
TTITLE6=I Refuse (Route 88) (Extended Version)
TTITLE7=Kiss (Live)
TTITLE8=Ordinary Angel (7" Version)
TTITLE9=Sweet Invisibility (Panopticon Master Mix)
TTITLE10=Calamity John
TTITLE11=The Man With Child In His Eyes
TTITLE12=Violently (Your Words Hit Me) (Acappella)
TTITLE13=Remembrance And Gold
TTITLE14=Long Term Lovers Of Pain (Remix)
TTITLE15=My Salt Heart (Extended Version)
TTITLE16=Looking For Linda (Gospel On The Track Mix)
TTITLE17=Labour Of Love (Original 12" Version)
EXTD=
EXTT0=
EXTT1=
EXTT2=
EXTT3=
EXTT4=
EXTT5=
EXTT6=
EXTT7=
EXTT8=
EXTT9=
EXTT10=
EXTT11=
EXTT12=
EXTT13=
EXTT14=
EXTT15=
EXTT16=
EXTT17=
PLAYORDER=
